<svg xmlns="http://www.w3.org/2000/svg" xmlns:xlink="http://www.w3.org/1999/xlink" width="500" zoomAndPan="magnify" viewBox="0 0 375 374.999991" height="500" preserveAspectRatio="xMidYMid meet" version="1.0"><defs><clipPath id="4538a3a3e8"><path d="M 4.003906 95 L 370.753906 95 L 370.753906 281.25 L 4.003906 281.25 Z M 4.003906 95 " clip-rule="nonzero"/></clipPath><clipPath id="b6eae84c1c"><path d="M 4.003906 103.5 L 4.003906 271.5 C 4.003906 276.882812 8.367188 281.25 13.753906 281.25 L 361.246094 281.25 C 366.632812 281.25 370.996094 276.882812 370.996094 271.5 L 370.996094 103.5 C 370.996094 98.113281 366.632812 93.75 361.246094 93.75 L 13.753906 93.75 C 8.367188 93.75 4.003906 98.113281 4.003906 103.5 Z M 4.003906 103.5 " clip-rule="nonzero"/></clipPath></defs><g clip-path="url(#4538a3a3e8)"><g clip-path="url(#b6eae84c1c)"><path fill="#0c231f" d="M 364.054688 148.089844 L 206.054688 97.980469 C 193.90625 94.140625 181.085938 94.140625 168.949219 97.980469 L 10.753906 148.152344 C 6.652344 149.582031 4.003906 153.304688 4.003906 157.628906 C 4.003906 161.957031 6.652344 165.664062 10.9375 167.171875 L 98.789062 195.035156 L 98.789062 260.332031 C 98.789062 263.074219 100.496094 265.523438 103.0625 266.480469 C 130.011719 276.480469 158.414062 281.539062 187.496094 281.539062 C 216.578125 281.539062 244.980469 276.46875 271.929688 266.480469 C 274.496094 265.535156 276.199219 263.074219 276.199219 260.332031 L 276.199219 218.980469 C 276.199219 215.363281 273.265625 212.429688 269.648438 212.429688 C 266.03125 212.429688 263.09375 215.363281 263.09375 218.980469 L 263.09375 255.734375 C 214.691406 272.601562 160.300781 272.601562 111.898438 255.734375 L 111.898438 199.203125 L 168.949219 217.292969 C 175.019531 219.203125 181.257812 220.175781 187.496094 220.175781 C 193.734375 220.175781 199.984375 219.21875 206.054688 217.292969 L 290.210938 190.566406 L 290.210938 275 C 290.210938 278.617188 293.148438 281.554688 296.765625 281.554688 C 300.382812 281.554688 303.320312 278.617188 303.320312 275 L 303.320312 181.613281 C 303.320312 181.457031 303.1875 181.351562 303.1875 181.195312 C 303.148438 180.671875 303.1875 180.160156 303.015625 179.636719 C 302.832031 179.058594 302.492188 178.601562 302.179688 178.117188 C 302.074219 177.957031 302.019531 177.789062 301.902344 177.628906 C 301.15625 176.675781 300.171875 176.019531 299.058594 175.585938 C 298.929688 175.535156 298.875 175.402344 298.730469 175.351562 L 189.476562 140.710938 C 186.054688 139.648438 182.34375 141.523438 181.257812 144.96875 C 180.167969 148.429688 182.070312 152.113281 185.53125 153.199219 L 275.101562 181.601562 L 202.097656 204.789062 C 192.542969 207.800781 182.449219 207.800781 172.921875 204.789062 L 24.214844 157.628906 L 172.90625 110.472656 C 182.449219 107.457031 192.542969 107.457031 202.082031 110.472656 L 350.777344 157.628906 L 322.152344 166.714844 C 318.707031 167.8125 316.792969 171.484375 317.894531 174.945312 C 318.980469 178.390625 322.652344 180.304688 326.125 179.203125 L 364.238281 167.09375 C 368.339844 165.664062 370.988281 161.941406 370.988281 157.617188 C 370.988281 153.292969 368.339844 149.582031 364.054688 148.074219 Z M 364.054688 148.089844 " fill-opacity="1" fill-rule="nonzero"/></g></g></svg>